<?xml version="1.0" standalone="no"?>
<!DOCTYPE svg PUBLIC "-//W3C//DTD SVG 1.1//EN" "http://www.w3.org/Graphics/SVG/1.1/DTD/svg11.dtd" >
<!--
2013-9-30: Created.
-->
<svg>
<metadata>
Created by iconfont
</metadata>
<defs>

<font id="ccui-iconfont" horiz-adv-x="1024" >
  <font-face
    font-family="ccui-iconfont"
    font-weight="500"
    font-stretch="normal"
    units-per-em="1024"
    ascent="896"
    descent="-128"
  />
    <missing-glyph />
    
    <glyph glyph-name="x" unicode="x" horiz-adv-x="1001"
d="M281 543q-27 -1 -53 -1h-83q-18 0 -36.5 -6t-32.5 -18.5t-23 -32t-9 -45.5v-76h912v41q0 16 -0.5 30t-0.5 18q0 13 -5 29t-17 29.5t-31.5 22.5t-49.5 9h-133v-97h-438v97zM955 310v-52q0 -23 0.5 -52t0.5 -58t-10.5 -47.5t-26 -30t-33 -16t-31.5 -4.5q-14 -1 -29.5 -0.5
t-29.5 0.5h-32l-45 128h-439l-44 -128h-29h-34q-20 0 -45 1q-25 0 -41 9.5t-25.5 23t-13.5 29.5t-4 30v167h911zM163 247q-12 0 -21 -8.5t-9 -21.5t9 -21.5t21 -8.5q13 0 22 8.5t9 21.5t-9 21.5t-22 8.5zM316 123q-8 -26 -14 -48q-5 -19 -10.5 -37t-7.5 -25t-3 -15t1 -14.5
t9.5 -10.5t21.5 -4h37h67h81h80h64h36q23 0 34 12t2 38q-5 13 -9.5 30.5t-9.5 34.5q-5 19 -11 39h-368zM336 498v228q0 11 2.5 23t10 21.5t20.5 15.5t34 6h188q31 0 51.5 -14.5t20.5 -52.5v-227h-327z" />
    

    
    <glyph glyph-name="weixin1" unicode="&#59048;" d="M668.225 567.251c10.017 0 19.927-0.736 29.758-1.83-26.738 124.499-159.848 217-311.785 217-169.864 0-309.009-115.779-309.009-262.797 0-84.863 46.293-154.55 123.65-208.602l-30.906-92.954 108.023 54.168c38.653-7.651 69.666-15.516 108.24-15.516 9.697 0 19.312 0.479 28.847 1.228-6.037 20.659-9.535 42.297-9.535 64.748 0.001 134.997 115.932 244.554 262.716 244.554zM502.076 651.030c23.267 0 38.68-15.307 38.68-38.559 0-23.159-15.413-38.679-38.68-38.679-23.16 0-46.399 15.519-46.399 38.679 0 23.253 23.239 38.559 46.4 38.559zM285.812 573.793c-23.157 0-46.531 15.519-46.531 38.679 0 23.252 23.373 38.559 46.531 38.559 23.159 0 38.574-15.307 38.574-38.559-0-23.159-15.414-38.679-38.574-38.679zM950.254 326.409c0 123.539-123.626 224.239-262.474 224.239-147.024 0-262.821-100.7-262.821-224.239 0-123.752 115.797-224.239 262.821-224.239 30.772 0 61.811 7.76 92.717 15.505l84.757-46.412-23.239 77.221c62.026 46.533 108.239 108.237 108.239 177.924zM602.566 365.074c-15.386 0-30.906 15.307-30.906 30.919 0 15.397 15.52 30.902 30.906 30.902 23.373 0 38.68-15.505 38.68-30.902 0-15.612-15.307-30.919-38.68-30.919zM772.537 365.074c-15.28 0-30.693 15.307-30.693 30.919 0 15.397 15.413 30.902 30.693 30.902 23.159 0 38.677-15.505 38.677-30.902 0.001-15.612-15.517-30.919-38.677-30.919z"  horiz-adv-x="1000" />

    
    <glyph glyph-name="gengduo1" unicode="&#59140;" d="M274.320998 402.319974l548.542976 0 0-54.854963-548.542976 0 0 54.854963ZM274.320998 73.19296l548.542976 0 0-54.854963-548.542976 0 0 54.854963ZM91.470029 731.449958l731.393024 0 0-54.854963-731.393024 0 0 54.854963Z"  horiz-adv-x="1024" />

    
    <glyph glyph-name="qq" unicode="&#58905;" d="M511.418 795.771c-279.905 0-506.812-226.907-506.812-506.812s226.907-506.812 506.812-506.812 506.812 226.907 506.812 506.812-226.907 506.812-506.812 506.812zM765.285 133.586c0 0-21.283-15.325-47.675 44.27-10.217-32.351-31.501-70.661-39.163-75.771 28.945-7.662 49.378-28.945 40.865-34.053 7.662-19.58 11.919-68.108-86.837-73.216-22.986-1.702-60.446 0.852-108.973 34.905-24.69-0.852-31.501 0-31.501 0s-40.014-45.973-123.445-29.797c-43.419 6.811-88.541 29.797-62.147 68.108-9.365 6.811 8.513 28.945 32.351 35.757-9.365 9.365-34.053 37.459-37.46 68.108-12.77-22.986-28.095-38.31-42.567-42.567-22.135 2.555-26.391 122.593 43.419 179.633-2.555 6.811-5.107 37.46 5.959 52.783-3.406 4.257 1.702 23.838 14.473 26.391 0 0-11.919 195.81 188.998 198.364 186.446 1.702 195.81-185.595 195.81-194.107 11.919-9.365 24.69-50.229 14.473-74.067 24.691-26.388 82.581-120.036 43.419-184.737z"  horiz-adv-x="1024" />

    
    <glyph glyph-name="QQ" unicode="&#59052;" d="M273.5104 331.82592 272.31232 335.55328 271.33952 340.3968 270.6944 343.04896 270.6944 346.3872 270.6944 350.37056 270.6944 353.97504 271.85152 358.27584 273.02912 362.8224 274.5856 367.59424 276.6848 372.9088 279.43936 378.42816 283.33056 383.95776 283.33056 387.82848 283.70944 391.45344 284.3136 396.37888 285.98272 401.91872 287.51872 407.89888 288.74752 410.6432 290.16064 413.2032 291.98336 416.04992 293.96992 418.1696 293.96992 422.0608 293.96992 426.43328 293.96992 431.84 295.1168 438.88512 296.27392 447.06688 298.33216 456.85632 301.16864 467.04512 303.27808 472.6464 305.36704 478.7392 307.6608 484.4224 310.40512 490.5152 313.20064 497.18144 316.416 503.42784 320.03072 510.09408 324.58752 516.75008 326.69696 520.5696 328.93952 523.6928 333.824 530.73792 338.85184 537.76256 344.55552 544.992 350.6688 552.02688 357.30432 558.95936 364.22656 566.0864 372.60288 573.77664 377.91744 578.45632 384.39936 583.50464 390.97344 587.95904 398.08 592.23936 404.91008 596.04864 412.61056 599.20256 420.79232 603.08352 428.92288 605.74592 437.03296 608.51072 445.7984 611.25504 454.5536 613.344 463.75936 615.0848 473.09824 616.59008 482.31424 617.81888 491.52 619.0784 501.34016 619.61088 510.67904 619.61088 520.33536 619.61088 530.35008 619.61088 540.01664 618.39232 549.7344 617.2352 559.63648 616.20096 568.832 613.98912 578.53952 611.92064 587.65312 609.54496 597.63712 606.8928 606.7712 603.65696 615.51616 599.96032 624.85504 596.04864 633.37472 591.77856 641.65888 587.0272 649.7792 581.79456 656.77312 576.93056 660.0192 574.18624 663.41888 572.1792 669.91104 566.67008 675.3792 561.34528 680.83712 555.83616 686.15168 549.7536 690.5344 543.85536 695.7568 537.76256 699.392 531.2192 703.0784 525.40288 706.99008 518.63424 710.23616 512.74624 715.69408 500.28416 718.37696 493.8432 720.47616 487.87328 722.57536 481.39136 724.45952 475.29856 725.77024 470.05568 727.47008 463.8912 730.44992 452.8832 732.35456 443.24736 733.5936 433.92896 734.65856 426.43328 736.33792 415.01568 736.7168 413.2032 738.05824 411.14496 741.67296 405.23648 743.99744 401.23264 746.05568 397.06496 748.67712 392.60032 750.99136 387.2448 752.49664 381.7664 754.13504 375.75552 755.37408 369.59104 755.93728 366.56 756.45952 362.8224 756.45952 359.57632 755.93728 356.36096 755.93728 352.35712 754.9952 348.47616 753.27488 340.96 751.29856 337.16096 749.83424 332.89088 749.83424 331.82592 750.53056 330.50496 752.49664 327.38176 761.05728 314.71488 767.81568 305.20192 771.05152 298.85312 775.41376 291.90016 779.2128 284.2816 783.59552 276.1408 787.97824 266.98624 792.91392 256.62336 795.6992 250.27456 798.23872 244.06912 800.43008 237.52576 802.59072 231.63776 804.23936 225.4528 805.91872 219.64672 808.0384 208.32128 809.71776 196.75008 810.87488 186.4896 810.87488 180.88832 810.87488 176.28032 810.87488 172.01024 810.09664 166.88 808.99072 158.0224 807.4752 150.06592 805.12 142.84672 804.23936 139.90784 802.59072 136.3648 801.21856 133.89696 799.37536 130.85568 797.75744 128.9408 795.6992 126.46272 793.856 124.46592 791.88992 122.75584 789.53472 121.7216 787.41504 120.68736 785.67424 120.11392 784.15872 120.11392 783.01184 120.11392 781.312 120.68736 778.07616 122.2848 776.59136 123.34976 775.03488 124.46592 773.33504 125.99168 771.61472 127.70176 768.77824 130.85568 765.41952 135.31008 762.7776 139.90784 760.13568 143.584 757.5552 147.86432 753.92 155.4624 749.83424 163.36768 749.35296 163.64416 748.67712 163.64416 747.01824 162.40512 746.05568 160.3264 744.45824 157.74592 741.67296 150.06592 737.47456 139.13984 732.09856 125.99168 728.05376 119.43808 723.8144 112.59776 718.77632 104.90752 713.43104 97.38112 710.69696 93.9712 707.3792 90.25408 699.7504 82.7584 700.416 82.08256 701.45024 81.00736 705.25952 78.77504 721.13152 71.14624 728.05376 67.2448 734.65856 63.456 741.19168 58.68416 747.01824 53.76896 749.83424 51.54688 751.95392 48.98688 754.13504 46.01728 755.93728 42.80192 756.91008 40.12928 758.09792 36.92416 758.60992 34.14912 759.17312 30.91328 758.60992 28.7424 758.60992 26.5408 758.09792 24.26752 756.91008 22.1888 756.45952 20.56064 755.37408 18.58432 752.49664 14.6624 749.83424 11.51872 747.776 9.16352 746.05568 7.42272 741.67296 4.22784 736.7168 1.44256 731.43296-1.21984 725.77024-3.77984 719.45216-6.25792 716.05248-7.29216 713.07264-8.13184 705.73056-9.84192 698.15296-11.47008 690.5344-13.088 682.25024-14.43968 673.71008-14.79808 664.95488-15.8528 656.29184-15.8528 647.17824-15.8528 637.77792-15.8528 627.97824-15.27936 618.8544-14.43968 609.01376-13.088 599.25504-12.04352 588.97408-10.60992 579.01056-8.13184 569.2928-6.25792 559.63648-3.49312 549.7344 0.04992 540.01664 2.97856 534.89664 4.68864 530.35008 6.30656 527.47264 7.42272 524.61568 8.02688 520.93952 8.02688 516.53632 8.02688 507.19744 8.68224 502.4768 9.16352 496.39424 9.83936 492.4928 6.30656 487.168 2.97856 479.9488-0.53376 471.9616-4.91648 467.10784-7.29216 462.03904-9.17632 450.84672-13.7536 444.76416-15.27936 438.38464-16.99968 429.53728-18.72 423.99744-19.15008 418.14016-19.65184 412.02688-20.32768 404.91008-20.59392 398.08-20.59392 390.97344-20.59392 375.83872-20.59392 359.424-20.32768 343.48032-18.72 335.4112-17.57312 327.61856-16.416 320.03072-15.27936 312.44288-13.7536 305.36704-11.47008 298.33216-9.84192 291.98336-7.29216 285.98272-4.91648 280.38144-2.24384 275.51744 0.67456 270.6944 4.22784 269.04576 5.94816 266.88512 8.02688 265.24672 9.83936 263.77216 11.92832 262.41024 14.00704 261.35552 16.10624 259.82976 20.56064 259.29728 22.86464 258.62144 25.42464 258.62144 27.79008 259.29728 30.46272 259.29728 33.11488 259.82976 35.76704 259.82976 37.38496 259.82976 41.12256 260.08576 43.9488 261.35552 47.18464 262.41024 50.42048 264.32512 54.32192 265.728 55.8272 266.88512 57.568 269.90592 61.26464 272.31232 63.16928 274.5856 64.50048 276.6848 66.19008 280.00256 67.2448 282.66496 68.86272 285.98272 70.5728 289.76128 71.70944 293.56032 72.86656 297.96352 73.82912 302.1312 74.38208 307.07712 75.0272 312.44288 75.4368 313.83552 75.8976 314.14272 75.8976 314.81856 76.47104 314.81856 77.1264 313.83552 78.4576 310.9888 79.80928 303.872 85.97376 299.08992 89.78304 293.56032 94.62656 287.98976 100.04352 282.19392 106.96576 275.51744 114.76864 273.02912 118.98752 269.73184 123.34976 266.88512 128.38784 264.32512 133.89696 260.87424 139.13984 258.62144 145.12 255.93856 151.08992 253.25568 157.74592 251.31008 164.12544 249.45664 172.01024 248.90368 172.29696 248.34048 172.29696 248.05376 172.86016 247.36768 172.86016 246.24128 172.29696 245.67808 172.01024 244.89984 170.68928 244.62336 169.0816 244.03968 167.648 243.02592 165.26208 239.7696 159.46624 238.08 155.95392 235.39712 152.89216 232.5504 149.20576 229.40672 145.12 226.08896 141.49504 222.18752 137.98272 218.58304 134.68544 214.58944 132.064 210.2272 129.32992 206.0288 127.70176 201.08288 126.46272 196.22912 125.99168 195.75808 125.99168 195.08224 125.99168 193.96608 126.46272 193.08544 128.38784 191.66208 129.32992 189.7984 133.89696 188.63104 136.3648 187.38176 139.90784 186.34752 143.584 185.79456 147.20896 184.25856 155.4624 183.67488 160.3264 183.67488 165.26208 183.67488 176.28032 184.25856 188.18944 185.22112 194.272 186.34752 200.53888 187.38176 207.28704 189.21472 213.56416 191.27296 220.7936 193.39264 227.83872 196.22912 235.08864 198.90176 242.00064 202.5984 249.01504 206.0288 256.62336 210.2272 263.76064 215.16288 271.46112 220.18048 278.38336 225.42336 286.08384 229.79584 291.4496 235.39712 297.5936 241.29536 303.7888 244.03968 306.73792 247.36768 310.05568 252.20096 314.24384 257.16736 318.51392 265.24672 325.7536 271.33952 330.208Z"  horiz-adv-x="1024" />

    
    <glyph glyph-name="weibo1" unicode="&#58907;" d="M511.897 800c-282.713 0-511.897-229.185-511.897-511.9 0-282.709 229.185-511.894 511.897-511.894s511.894 229.185 511.894 511.894c0 282.715-229.181 511.9-511.894 511.9zM464.433 32.958c-130.831 0-264.564 63.404-264.564 167.69 0 54.521 34.542 117.569 94.030 177.068 79.431 79.409 172.060 115.582 206.896 80.724 15.371-15.349 16.859-41.947 6.98-73.693-5.15-15.993 15.009-7.137 15.009-7.172 64.203 26.88 120.215 28.464 140.687-0.788 10.925-15.588 9.879-37.447-0.189-62.778-4.657-11.67 1.433-13.478 10.314-16.144 36.176-11.215 76.439-38.341 76.439-86.141-0.001-79.115-114.089-178.766-285.601-178.766zM701.286 364.551c4.231 13.072 1.58 27.973-8.284 38.907-9.855 10.913-24.419 15.054-37.851 12.214v0.025c-11.205-2.438-22.247 4.752-24.65 15.947-2.409 11.241 4.749 22.294 15.98 24.688 27.477 5.842 57.245-2.652 77.402-25.015 20.199-22.361 25.602-52.822 16.967-79.543-3.525-10.94-15.244-16.896-26.169-13.399-10.922 3.536-16.895 15.27-13.374 26.181h-0.020zM822.412 325.435c-0.007-0.022-0.007-0.070-0.007-0.093-4.11-12.674-17.731-19.615-30.399-15.513-12.719 4.106-19.668 17.697-15.564 30.402l-0.007 0.010c12.599 39.001 4.609 83.492-24.807 116.109-29.443 32.621-72.857 45.081-112.974 36.562-13.049-2.782-25.881 5.547-28.662 18.583-2.793 13.024 5.524 25.861 18.573 28.654h0.025c56.389 11.99 117.481-5.516 158.901-51.438 41.431-45.873 52.599-108.413 34.922-163.274zM640.537 221.689c-6.768 68.515-96.89 115.706-201.299 105.383-104.387-10.323-183.548-74.239-176.767-142.767 6.782-68.546 96.9-115.737 201.298-105.434 104.411 10.329 183.539 74.251 176.767 142.818zM530.835 165.43c-21.305-48.19-82.587-73.883-134.575-57.116-50.193 16.199-71.442 65.757-49.466 110.402 21.578 43.772 77.728 68.53 127.406 55.606 51.414-13.289 77.649-61.788 56.635-108.892zM424.605 202.142c-16.165 6.777-37.062-0.191-47.037-15.834-10.099-15.709-5.361-34.42 10.693-41.729 16.286-7.436 37.908-0.377 48.009 15.734 9.915 16.269 4.694 34.858-11.662 41.829zM464.449 218.66c-6.203 2.462-13.959-0.518-17.596-6.62-3.534-6.133-1.584-13.117 4.633-15.675 6.324-2.602 14.395 0.402 18.047 6.642 3.485 6.287 1.219 13.349-5.083 15.654z"  horiz-adv-x="1024" />

    
    <glyph glyph-name="dizhi" unicode="&#58927;" d="M508.536109 747.53171c-185.511087 0-335.90026-147.735739-335.90026-329.984526 0-142.363382 204.984604-427.498444 294.692742-545.466206 9.707083-12.764722 24.984021-20.283975 41.206494-20.283975l0.004093 0c16.226566 0 31.505551 7.52437 41.21775 20.295232 89.710184 117.972878 294.681486 403.096684 294.681486 545.45495C844.437391 599.79597 694.050266 747.53171 508.536109 747.53171zM531.628036-50.651218c-5.367241-7.266497-13.950733-11.564383-23.089881-11.564383-9.134031 0-17.721617 4.296863-23.091928 11.564383C329.400219 160.498806 233.872538 337.609573 233.872538 417.547183c0 148.781558 123.215276 269.824355 274.66357 269.824355 151.451364 0 274.665617-121.042797 274.665617-269.824355C783.202749 337.614689 687.669952 160.495736 531.628036-50.651218zM508.536109 578.766005c-78.912257 0-142.883221-62.844304-142.883221-140.367935 0-77.521584 63.970964-140.363841 142.883221-140.363841 78.914304 0 142.887314 62.842257 142.887314 140.363841C651.424446 515.921701 587.450413 578.766005 508.536109 578.766005zM508.536109 358.19133c-45.019333 0-81.648578 35.979446-81.648578 80.20674 0 44.231387 36.629245 80.210833 81.648578 80.210833 45.022403 0 81.648578-35.979446 81.648578-80.210833C590.184687 394.170776 553.558511 358.19133 508.536109 358.19133z"  horiz-adv-x="1024" />

    
    <glyph glyph-name="add" unicode="&#58972;" d="M514.009 886.095c-277.298 0-502.095-224.796-502.095-502.095s224.796-502.095 502.095-502.095 502.095 224.796 502.095 502.095-224.722 502.095-502.095 502.095zM514.009-72.475c-252.124 0-456.475 204.352-456.475 456.475s204.425 456.475 456.475 456.475 456.475-204.352 456.475-456.475-204.352-456.475-456.475-456.475zM536.891 635.050h-45.691v-228.237h-228.239v-45.691h228.237v-228.166h45.691v228.237h228.166v45.618h-228.237v228.237h0.071z"  horiz-adv-x="1024" />

    
    <glyph glyph-name="jiahao" unicode="&#59281;" d="M896 332 544 332 544 684 480 684 480 332 128 332 128 268 480 268 480-84 544-84 544 268 896 268Z"  horiz-adv-x="1024" />

    
    <glyph glyph-name="jianhao" unicode="&#59282;" d="M808.914852 318.135032 215.092311 318.135032c-13.648858 0-24.740474 11.393491-24.740474 25.071002 0 13.676487 11.091616 25.071002 24.740474 25.071002l593.82254 0c13.648858 0 24.742521-11.394515 24.742521-25.071002C833.657372 329.5275 822.56371 318.135032 808.914852 318.135032z"  horiz-adv-x="1024" />

    
    <glyph glyph-name="shixinduigou" unicode="&#59221;" d="M512 896c-282.688 0-512-229.248-512-512s229.312-512 512-512c282.816 0 512 229.248 512 512s-229.184 512-512 512zM422.912 39.872l-299.712 309.568 76.864 62.592 173.312-138.048c71.040 85.76 228.672 255.936 446.208 391.232l18.304-42.88c-199.68-186.304-363.072-448.448-414.976-582.464z"  horiz-adv-x="1024" />

    
    <glyph glyph-name="gouwuche2" unicode="&#59083;" d="M892.427 141.359h-559.071c-15.695 0-30.647 14.16-32.661 30.928l-58.606 412.699-33.14 191.281c-6.025 49.346-49.379 87.933-98.743 87.933h-43.851c-18.055 0-32.743-14.689-32.743-32.743s14.689-32.743 32.743-32.743h43.851c16.274 0 31.82-14.623 33.965-31.919l33.206-191.973 58.374-411.047c5.974-49.281 48.835-87.867 97.604-87.867h559.071c18.055 0 32.743 14.689 32.743 32.743 0.002 18.022-14.687 32.71-32.741 32.71zM970.029 730.715c-17.231 19.507-40.962 30.236-66.775 30.236h-595.957c-18.055 0-32.743-14.689-32.743-32.743s14.689-32.743 32.743-32.743h595.957c7.031 0 13.005-2.74 17.757-8.121 7.063-7.988 10.661-21.092 9.177-33.404l-54.233-310.307c-2.013-16.537-17.791-30.17-35.154-30.269l-466.813-34.427c-8.714-0.628-16.636-4.589-22.346-11.223-5.728-6.602-8.515-15.052-7.873-23.766 1.238-17.033 15.564-30.367 32.612-30.367 0.775 0 1.601 0.033 2.41 0.099l464.388 34.327c48.851 0 91.63 37.795 97.505 86.018l54.266 310.307c3.927 32.544-5.15 64.066-24.922 86.38zM342.268-96.198c37.019 0 67.154 30.137 67.154 67.138 0 37.035-30.137 67.172-67.154 67.172s-67.154-30.137-67.154-67.172c-0.001-37.003 30.135-67.138 67.154-67.138zM824.166-96.198c37.003 0 67.138 30.137 67.138 67.138 0 37.035-30.137 67.172-67.138 67.172-37.035 0-67.171-30.137-67.171-67.172 0-37.003 30.135-67.138 67.171-67.138z"  horiz-adv-x="1024" />

    
    <glyph glyph-name="jiantoushang" unicode="&#58920;" d="M513.615837 812 200.181323 397.375882l203.355252-0.738931-2.209639-607.84794 217.115926-0.789011 2.209639 607.84794 203.355252-0.738931L513.615837 812zM513.615837 812"  horiz-adv-x="1024" />

    
    <glyph glyph-name="zhifubao" unicode="&#58965;" d="M1023.648242 194.722129L1023.648242 698.503779c0 108.597339-88.13141 196.728749-196.792705 196.728749L197.080507 895.232528C88.483168 895.232528 0.351758 807.101118 0.351758 698.503779l0-629.77503c0-108.597339 88.067454-196.728749 196.728749-196.728749l629.77503 0c96.765474 0 177.286116 69.967897 193.722816 162.000625-52.188121 22.576479-278.336644 120.237337-396.143651 176.454687-89.666354-108.597339-183.553807-173.768534-325.088502-173.768534s-235.997752 87.172069-224.677534 193.850728C82.151521 300.56935899999996 130.1825 415.050653 338.80707 395.416151 448.747486 385.119231 499.080882 364.589345 588.747236 334.977703c23.216039 42.53076 42.466804 89.346574 57.112735 139.168322L248.245331 474.146025 248.245331 513.5429389999999l196.728749 0L444.97408 584.278309 205.011055 584.278309 205.011055 627.640497l239.963025 0L444.97408 729.714321c0 0 2.174505 15.989008 19.826369 15.989008L563.164824 745.7033289999999l0-118.062832 255.824121 0 0-43.362188-255.824121 0L563.164824 513.5429389999999l208.688527 0c-19.186809-78.090313-48.286803-149.848979-84.74174-212.525888C747.741927 279.08013200000005 1023.648242 194.722129 1023.648242 194.722129L1023.648242 194.722129 1023.648242 194.722129zM283.676972 104.22434599999997c-149.529199 0-173.19293 94.399101-165.262382 133.859971 7.866592 39.269003 51.164824 90.497783 134.307663 90.497783 95.550309 0 181.123478-24.431204 283.836862-74.444819C464.416714 160.18587200000002 375.773656 104.22434599999997 283.676972 104.22434599999997L283.676972 104.22434599999997z"  horiz-adv-x="1024" />

    
    <glyph glyph-name="qian" unicode="&#58963;" d="M512 714.634667c-237.056 0-429.269333-192.213333-429.312-429.312 0-237.184 192.213333-429.354667 429.312-429.354667 237.141333 0 429.354667 192.213333 429.354667 429.354667C941.354667 522.421333 749.184 714.634667 512 714.634667zM701.866667 290.912c1.450667-6.869333 2.176-14.677333 2.176-23.466667 0-10.752-0.725333-19.797333-2.176-27.136l-140.672 0 0-64.512 140.672 0c1.450667-6.826667 2.176-14.634667 2.176-23.424 0-10.794667-0.725333-19.797333-2.176-27.136l-140.672 0 0-115.029333c-5.930667-0.938667-11.989333-1.706667-18.346667-2.218667-6.357333-0.512-12.757333-0.768-19.072-0.768-6.357333 0-12.672 0.256-19.029333 0.768-6.314667 0.512-12.458667 1.237333-18.346667 2.218667l0 115.029333-134.826667 0c-1.962667 5.888-2.944 14.165333-2.944 24.917333 0 4.437333 0.256 8.789333 0.725333 13.226667 0.512 4.394667 1.237333 8.533333 2.218667 12.416l134.826667 0 0 64.512-134.826667 0c-1.962667 5.888-2.944 14.165333-2.944 24.917333 0 4.394667 0.256 8.789333 0.725333 13.226667 0.512 4.394667 1.237333 8.533333 2.218667 12.458667l105.514667 0-134.826667 237.397333c6.357333 0.981333 13.312 1.706667 20.864 2.176C350.762667 530.997333 357.973333 531.253333 364.8 531.253333c6.826667 0 13.909333-0.256 21.248-0.725333s13.909333-1.194667 19.797333-2.176l120.149333-221.312 118.016 221.312c6.314667 0.981333 12.8 1.706667 19.413333 2.176 6.528 0.469333 13.312 0.725333 20.138667 0.725333s13.653333-0.256 20.48-0.725333c6.869333-0.469333 13.226667-1.194667 19.072-2.176l-132.608-237.397333L701.866667 290.954667zM498.389333 125.28"  horiz-adv-x="1024" />

    
    <glyph glyph-name="close2" unicode="&#58939;" d="M874.048 655.552l-271.552-271.552 271.552-271.552-90.496-90.496-271.552 271.552-271.552-271.552-90.496 90.496 271.552 271.552-271.552 271.552 90.496 90.496 271.552-271.552 271.552 271.552 90.496-90.496z"  horiz-adv-x="1024" />

    
    <glyph glyph-name="buxing" unicode="&#59068;" d="M589.541539 325.215152l0.232291 0L589.773829 448.50513c9.231245-8.173147 16.811898-17.36346 16.874319-23.988344l-0.168846 0 0-52.064796c0-31.717376 23.333428-57.506738 52.023864-57.506738 27.969005 0 46.74872 21.957081 46.74872 54.626131l0 62.037938 0 15.753799c0 43.744293-89.053222 114.13241-136.628774 148.603503 17.530258 18.081821 28.328185 42.716894 28.328185 69.818135 0 55.357795-45.033659 100.381222-100.401688 100.381222-55.346539 0-100.402711-45.023426-100.402711-100.381222 0-45.308929 30.192649-83.709517 71.479985-96.157014-44.400233-39.636742-51.535747-76.995605-51.874461-78.986959l-0.233314-168.791288c-1.736551-3.347235-10.290367-10.629081-17.192567-16.516162-17.361413-14.778588-41.117466-35.021631-61.740156-69.235874-32.267914-53.546543-50.350758-115.031896-51.323922-118.442576l-10.225899-42.704614c-3.980661-22.209838-0.551562-40.039925 10.247388-52.953026 11.137665-13.33982 29.199019-20.136619 53.694923-20.179598l0.170892 0c32.69054 0 51.30141 16.917298 62.10036 56.258305 10.756995 37.009915 47.53462 138.027633 87.973634 160.872944C576.370565 268.153552 588.038302 312.383916 589.541539 325.215152M430.72237 665.783735c0 36.300764 29.515221 65.848731 65.827241 65.848731 36.332487 0 65.848731-29.547966 65.848731-65.848731 0-36.313044-29.516244-65.87022-65.848731-65.87022C460.237591 599.913515 430.72237 629.470691 430.72237 665.783735M472.22153 249.012609c-59.815317-33.792641-99.789751-166.293397-104.21555-181.53759-8.553817-31.210839-18.376533-31.251771-28.963659-31.123858-13.594623 0.040932-23.014156 2.708692-27.250644 7.792477-4.89038 5.844102-4.192485 16.639982-2.943029 23.732517l9.761318 40.928155c0.190335 0.593518 17.658172 59.877739 47.554062 109.422132 17.744129 29.408797 38.153972 46.836725 54.564733 60.82839 14.882965 12.684904 26.90886 22.931269 29.006637 37.372166l0.317225 0L450.052624 485.726869c1.989307 7.709589 15.010879 47.778166 76.794014 84.33271 4.170996 1.324158 8.172123 2.911306 12.068873 4.711302 65.192791-46.252417 131.803885-106.575294 131.803885-127.408785l0-15.753799 0-62.037938c0-13.337773-4.108574-20.069081-12.216229-20.069081-9.487072 0-17.469883 10.500145-17.469883 22.950711l0 48.399313c3.028986 35.57217-39.97341 63.605643-51.259454 70.337975l0 0.51063-0.889253 0c-0.063445 0.041956-0.125867 0.082888-0.191358 0.125867l-0.042979-0.125867L555.19836 491.699907l0-163.244968C555.19836 328.116225 550.348911 293.137573 472.22153 249.012609M322.653049 335.356117c0.361227 0 0.698918 0 1.038656 0 14.186094 0.25378 28.075429 5.886057 39.062668 15.753799l38.112016 34.301224 0 46.072315-61.084217-54.583153c-4.826935-4.363378-10.946306-6.904247-16.747429-6.989181-2.690272-0.168846-8.194636 0.444115-11.983939 4.66116-3.768837 4.190439-3.706415 9.56689-3.324722 12.406564 0.698918 5.758144 3.918239 11.559267 8.765641 15.900132l50.41318 45.246507c6.266727 5.355985 23.523763 21.469987 31.738865 28.753881l0 42.907229c-5.695722-5.122671-31.422663-26.349111-47.13246-39.47813l-0.191358 0.233314-57.886385-51.936883c-11.07422-9.950629-18.187221-23.162536-19.987217-37.222763-1.883907-14.800078 2.434445-29.345352 11.899004-39.889499C294.578644 341.200218 308.129264 335.356117 322.653049 335.356117M725.216591 104.56987 600.93196 277.934313l-1.948375-1.396813-22.316262-27.186176 118.972649-165.996638c9.274224-12.916171 7.262404-30.235628-4.447289-38.618553-5.504364-3.981684-12.365632-5.379521-19.394722-4.022617-7.391341 1.461281-14.016225 5.8001-18.611893 12.216229L542.325168 207.533916l-23.925922-29.111015 105.210203-146.688897c10.034541-14.015202 24.665773-23.502273 41.221844-26.742061 4.108574-0.804319 8.216125-1.206478 12.280698-1.206478 12.68388 0 24.879644 3.89675 35.317367 11.348466C740.442364 35.248038 746.177995 75.350384 725.216591 104.56987"  horiz-adv-x="1024" />

    
    <glyph glyph-name="chengshifuwu" unicode="&#59086;" d="M839.653947 88.111013l-673.614841 0.327458c0 0-72.501244-3.257184-15.047718 51.307549 15.09786 8.256034 32.786731 15.956414 52.631708 22.951735-4.935406 11.134595-7.80271 23.555485-7.80271 36.71725 0 47.02706 35.297924 85.138052 78.851882 85.138052 43.529399 0 78.827323-38.110993 78.827323-85.138052 0-0.997724-0.113587-1.983167-0.13917-2.960425 5.075599 0.654916 10.213619 1.305739 15.389502 1.898233L368.749924 638.700913c0 28.92989 21.411659 51.868321 50.435693 51.868321l302.204833 0c29.02301 0 49.273217-22.938432 49.273217-51.868321l0-465.046618c35.283598-9.872858 65.60723-21.662369 89.342818-34.918277C946.481997 81.066573 839.653947 88.111013 839.653947 88.111013zM537.298687 573.881628c0 14.455223-11.411911 25.929556-25.929556 25.929556L459.51923 599.811184c-14.517645 0-25.930579-11.474332-25.930579-25.929556l0-71.321372c0-14.449084 17.888416-25.919323 32.407084-25.919323l45.372374 0c14.517645 0 25.929556 11.469216 25.929556 25.919323L537.297664 573.881628zM537.298687 385.877767c0 14.467503-11.411911 25.930579-25.929556 25.930579L459.51923 411.808346c-14.517645 0-25.930579-11.464099-25.930579-25.930579l0-71.309092c0-14.449084 17.888416-25.931602 32.407084-25.931602l45.372374 0c14.517645 0 25.929556 11.482519 25.929556 25.931602L537.297664 385.877767zM705.848475 573.881628c0 14.455223-11.412934 25.929556-25.932626 25.929556l-51.860135 0c-14.518668 0-25.918299-11.474332-25.918299-25.929556l0-71.321372c0-14.449084 17.889439-25.919323 32.407084-25.919323l45.37135 0c14.518668 0 25.932626 11.469216 25.932626 25.919323L705.848475 573.881628zM705.848475 385.877767c0 14.467503-11.412934 25.930579-25.932626 25.930579l-51.860135 0c-14.518668 0-25.918299-11.464099-25.918299-25.930579l0-71.309092c0-14.449084 17.889439-25.931602 32.407084-25.931602l45.37135 0c14.518668 0 25.932626 11.482519 25.932626 25.931602L705.848475 385.877767z"  horiz-adv-x="1024" />

    
    <glyph glyph-name="yinxingqia" unicode="&#59092;" d="M812.909839 666.981003 209.868333 666.981003c-44.844348 0-81.351819-36.489052-81.351819-81.346703l0-412.639015c0-44.870953 36.507472-81.352843 81.351819-81.352843l603.040483 0c44.857651 0 81.340563 36.481889 81.340563 81.352843L894.249379 585.6343C894.250402 630.49195 857.754187 666.981003 812.909839 666.981003M209.868333 633.088078l603.040483 0c26.160823 0 47.453778-21.292955 47.453778-47.453778l0-47.458895L162.415578 538.175405l0 47.458895C162.415578 611.795123 183.708534 633.088078 209.868333 633.088078M812.909839 125.541507 209.868333 125.541507c-26.1598 0-47.453778 21.279652-47.453778 47.453778L162.414555 433.962925l697.948039 0 0-260.96764C860.363617 146.821159 839.070662 125.541507 812.909839 125.541507"  horiz-adv-x="1024" />

    
    <glyph glyph-name="xiangce" unicode="&#59093;" d="M837.307506 701.358975 185.609837 701.358975c-31.755238 0-57.502645-25.765827-57.502645-57.502645l0-519.095605c0-31.765471 25.748431-57.512878 57.502645-57.512878l651.697669 0c31.763424 0 57.501622 25.747407 57.501622 57.512878L894.809127 643.856329C894.810151 675.594171 869.07093 701.358975 837.307506 701.358975M855.818091 255.461485 658.864394 426.87346 550.448172 315.247126l49.2681-73.103972L373.29852 439.93187 167.097204 265.792784 167.097204 624.033865c0 21.160949 17.157775 38.334073 38.334073 38.334073l612.05274 0c21.187555 0 38.334073-17.174148 38.334073-38.334073L855.818091 255.461485z"  horiz-adv-x="1024" />

    
    <glyph glyph-name="yincang" unicode="&#59094;" d="M892.625392 387.199878c0-73.458035-157.325142-230.159984-381.521297-230.159984-218.492246 0-381.52539 154.12424-381.52539 230.159984 0 76.022441 163.735132 229.912343 381.52539 229.912343C737.062384 617.113245 892.678604 463.222319 892.625392 387.199878L892.625392 387.199878zM511.43974 575.128015c-101.541651 0-183.854355-84.198657-183.854355-188.05605 0-103.856369 82.311681-188.055027 183.854355-188.055027 101.56928 0 183.888124 84.198657 183.888124 188.055027C695.32377 490.929358 613.00902 575.128015 511.43974 575.128015L511.43974 575.128015zM511.43974 575.128015M511.104095 507.132388c-64.666812 0-117.084649-53.608965-117.084649-119.743198 0-66.131163 52.41886-119.750361 117.084649-119.750361 64.661695 0 117.062136 53.619198 117.062136 119.750361C628.166231 453.523423 575.765791 507.132388 511.104095 507.132388L511.104095 507.132388zM511.104095 507.132388"  horiz-adv-x="1024" />

    
    <glyph glyph-name="shanchu" unicode="&#59095;" d="M700.605054 76.231451l-71.491241 0L629.113813 576.703907l-71.52501 0 0-500.472456-95.309716 0L462.279087 576.703907l-71.490218 0 0-500.472456-71.491241 0L319.297628 576.703907l381.308449 0L700.606077 76.231451zM438.425819 695.901683l142.982482 0 0-47.671743L438.425819 648.22994 438.425819 695.901683zM784.042371 648.22994 652.932288 648.22994l0 71.491241c0 26.221198-21.449521 47.671743-47.671743 47.671743L414.607344 767.392924c-26.221198 0-47.671743-21.450545-47.671743-47.671743l0-71.491241L235.862357 648.22994c-19.779486 0-35.727713-15.984043-35.727713-35.798321 0-19.708877 15.948227-35.726689 35.727713-35.726689l11.910261 0 0-524.360516c0-26.184359 21.450545-47.63695 47.671743-47.63695l429.014984 0c26.186406 0 47.671743 21.452591 47.671743 47.63695L772.131087 576.703907l11.911284 0c19.777439 0 35.761482 16.017812 35.761482 35.726689C819.803853 632.245897 803.81981 648.22994 784.042371 648.22994"  horiz-adv-x="1024" />

    
    <glyph glyph-name="xiangqing" unicode="&#59096;" d="M511.607562 0.543631c-208.513988 0-377.534496 171.824367-377.534496 383.771547 0 211.94718 169.019485 383.771547 377.534496 383.771547 208.518081 0 377.537566-171.824367 377.537566-383.771547C889.146151 172.367998 720.125643 0.543631 511.607562 0.543631L511.607562 0.543631zM511.607562 734.22143c-190.092429 0-344.218716-156.651806-344.218716-349.906252 0-193.251376 154.126286-349.918531 344.218716-349.918531 190.120059 0 344.235089 156.668179 344.235089 349.918531C855.842651 577.569624 701.727621 734.22143 511.607562 734.22143L511.607562 734.22143zM590.901513 163.790646c-4.426823 0-12.126178 0.306992-23.072485 0.928139-23.180955 1.439792-46.139853 2.146896-68.898183 2.146896-11.165294 0-22.536272-0.561795-34.123168-1.703805-6.956436-0.892323-11.69332-1.358951-14.222933-1.358951-9.276271 0-13.911848 2.764973-13.911848 8.326643 0 5.352915 6.113231 8.535397 18.339694 9.576099 16.22452 1.428535 25.270547 6.739495 27.171849 15.905248 1.889023 9.149381 2.835581 27.716248 2.835581 55.70265 0 36.205597-0.581238 69.479421-1.723248 99.838869-1.170662 30.352285-3.330862 47.685046-6.489808 52.009538-3.157923 4.312212-11.370978 7.194866-24.642237 8.636704-10.330276 1.017166-15.491833 4.018523-15.491833 8.959046s5.263887 7.81192 15.801894 8.636704l6.634094 0.618077 98.606809 6.1777c0.832971-28.818349 1.257643-80.150458 1.257643-154.00042l-0.950651-66.367547c0-13.381775 2.266623-22.328541 6.795776-26.849508 4.532223-4.529153 11.95631-7.514137 22.278399-8.955976 11.794627-1.440815 17.695011-4.724605 17.695011-9.873882C604.802104 166.561759 600.159364 163.790646 590.901513 163.790646L590.901513 163.790646zM507.79063 498.03315c-12.643971 0-23.38664 4.360308-32.228005 13.110599-8.846482 8.743128-13.272281 19.175735-13.272281 31.323403 0 12.345166 4.425799 22.848381 13.272281 31.473829 8.841366 8.648984 19.584034 12.973476 32.228005 12.973476 12.434194 0 23.118534-4.324492 32.088836-12.973476 8.93551-8.625448 13.417591-19.127639 13.417591-31.473829 0-12.148691-4.482081-22.580275-13.417591-31.323403C530.90814 502.404714 520.224824 498.03315 507.79063 498.03315L507.79063 498.03315zM507.79063 498.03315"  horiz-adv-x="1024" />

    
    <glyph glyph-name="zhiding" unicode="&#59097;" d="M895.590933 767.875924 127.934253 767.875924l0-109.663632 361.072569 0L143.998113 313.149349l77.534887-77.535911 235.396241 235.45457 0-470.849788 109.667725 0 0 470.741317 235.395218-235.346099 77.531817 77.535911L534.408871 658.213315 895.590933 658.213315 895.590933 767.875924zM895.590933 767.875924"  horiz-adv-x="1024" />

    
    <glyph glyph-name="xiala" unicode="&#58958;" d="M800 559l36-35-324-315-324 315 36 35 288-280z"  horiz-adv-x="1024" />

    
    <glyph glyph-name="shangla" unicode="&#58998;" d="M224 209l-36 35 324 315 324-315-36-35-288 280z"  horiz-adv-x="1024" />

    
    <glyph glyph-name="telephone" unicode="&#59005;" d="M263.102 835.89c2.267-6.799-210.797-151.863 24.933-605.189 233.462-451.059 426.126-346.795 426.126-346.795l-115.598 260.662c0 0-31.732-24.933-72.532 29.467-43.066 56.666-138.265 237.996-151.863 308.261-15.867 67.998-15.867 90.665 11.333 90.665-120.132 253.865-124.666 267.463-122.399 262.93v0zM630.295 155.901l-4.534 9.066c0 0 56.665 24.933 86.132 31.732 27.199 9.066 34-13.6 34-13.6s74.799-156.398 92.931-194.93c18.132-38.532-11.333-54.399-11.333-54.399l-74.799-36.266-122.398 258.395zM299.369 847.223l-4.534 6.799c0 0 56.666 24.933 86.132 34 27.199 6.799 34-13.6 34-13.6s74.799-158.665 92.931-197.196c18.132-38.532-11.333-52.133-11.333-52.133l-74.799-36.267-122.398 258.396z"  horiz-adv-x="1024" />

    
    <glyph glyph-name="yuanxingweixuanzhong" unicode="&#59283;" d="M512-64c-247.039484 0-448 200.960516-448 448S264.960516 832 512 832 960 631.039484 960 384 759.039484-64 512-64zM512 768c-211.744443 0-384-172.255557-384-384s172.255557-384 384-384 384 172.255557 384 384S723.744443 768 512 768z"  horiz-adv-x="1024" />

    
    <glyph glyph-name="yuanxingxuanzhongfill" unicode="&#59285;" d="M512 830.016611c-245.919634 0-446.016611-200.095256-446.016611-446.016611 0-245.952318 200.064292-446.016611 446.016611-446.016611S958.016611 138.047682 958.016611 384C958.016611 629.919634 757.952318 830.016611 512 830.016611zM727.231286 457.567746 471.00766 198.560839c-0.063647-0.063647-0.192662-0.096331-0.25631-0.192662-0.096331-0.063647-0.096331-0.192662-0.192662-0.25631-2.048757-1.983389-4.575729-3.19957-6.944443-4.544765-1.183497-0.672598-2.143368-1.696116-3.392232-2.176052-3.839484-1.536138-7.904314-2.33603-11.967424-2.33603-4.095794 0-8.224271 0.799892-12.096439 2.399677-1.279828 0.543583-2.303346 1.632469-3.519527 2.303346-2.368714 1.343475-4.832039 2.528692-6.880796 4.544765-0.063647 0.063647-0.096331 0.192662-0.159978 0.25631-0.063647 0.096331-0.192662 0.096331-0.25631 0.192662l-126.016611 129.503454c-12.320065 12.672705-12.032791 32.928047 0.639914 45.248112 12.672705 12.287381 32.895364 12.063755 45.248112-0.639914l103.26354-106.112189 233.279613 235.839269c12.416396 12.576374 32.704421 12.703669 45.248112 0.25631C739.520387 490.399462 739.647682 470.14412 727.231286 457.567746z"  horiz-adv-x="1024" />

    
    <glyph glyph-name="weibo" unicode="&#59058;" d="M726.974 393.461c-34.789 6.761-17.886 25.465-17.886 25.465s34.027 56.002-6.707 96.79c-50.495 50.44-173.186-6.435-173.186-6.435-46.828-14.56-34.409 6.598-27.81 42.697 0 42.424-14.519 114.294-139.31 71.816-124.709-42.642-231.751-192.217-231.751-192.217-74.487-99.299-64.591-176.076-64.591-176.076 18.568-169.478 198.679-216.047 338.766-227.061 147.381-11.616 346.304 50.821 406.615 178.912 60.311 128.363-49.294 179.129-84.138 186.109v0zM415.431 76.263c-146.275-6.816-264.55 66.526-264.55 164.188 0 97.717 118.275 176.13 264.55 182.838 146.426 6.761 264.92-53.603 264.92-151.101 0-97.663-118.547-189.273-264.92-195.925v0zM386.285 358.944c-147.203-17.231-130.163-155.082-130.163-155.082s-1.527-43.679 39.453-65.872c86.102-46.623 174.741-18.377 219.55 39.479 44.824 57.801 18.486 198.542-128.84 181.475v0zM349.151 165.473c-27.483-3.272-49.622 12.597-49.622 35.553 0 22.903 19.658 46.895 47.141 49.786 31.573 2.944 52.104-15.269 52.104-38.226-0-22.847-22.303-44.005-49.622-47.113v0zM435.853 239.307c-9.297-6.926-20.775-5.944-25.656 2.4-5.153 8.124-3.217 21.158 6.217 27.974 10.906 8.124 22.221 5.78 27.156-2.345 4.933-8.289 1.39-20.83-7.717-28.028v0zM798.626 453.117c11.832 0 21.921 8.724 23.611 20.231 0.218 0.818 0.327 1.581 0.327 2.562 17.995 161.572-132.398 133.761-132.398 133.761-13.36 0-24.048-10.797-24.048-24.266 0-13.25 10.687-24.048 24.048-24.048 108.023 23.83 84.194-84.193 84.194-84.193 0.001-13.361 10.852-24.049 24.267-24.049v0zM781.067 735.144c-51.967 12.215-105.406 1.745-120.401-1.145-1.199-0.108-2.29-1.199-3.326-1.417-0.49-0.109-0.873-0.655-0.873-0.655-14.723-4.2-25.52-17.831-25.52-34.027 0-19.249 15.595-35.063 35.064-35.063 0 0 18.921 2.508 31.737 7.58 12.76 5.126 120.401 3.816 173.896-86.048 29.228-65.546 12.868-109.387 10.797-116.476 0 0-6.926-17.013-6.926-33.808 0-19.358 15.595-31.519 34.953-31.519 16.141 0 29.719 2.182 33.7 29.556h0.218c57.419 191.345-70.235 281.319-163.318 303.021v0zM781.067 735.144z"  horiz-adv-x="1024" />

    
    <glyph glyph-name="wujiaoxingkongxin" unicode="&#59017;" d="M1023.490905 503.597889l-352.900445 53.851489L512.766968 893.272889 354.9445 557.449377 2.044054 503.597889l255.361969-261.401522-60.282968-369.105522 315.644937 174.269046 315.644937-174.269046-60.281945 369.105522L1023.490905 503.597889zM771.637854-42.324712 512.766968 100.599442 253.895059-42.324712l49.440016 302.716486L93.904205 474.77647l289.426809 44.165896L512.766968 794.362158l129.435954-275.420817 289.426809-44.165896L722.198861 260.391774 771.637854-42.324712z"  horiz-adv-x="1024" />

    
    <glyph glyph-name="wujiaoxingshixin" unicode="&#59018;" d="M512.766968 893.272889 670.589436 557.449377 1023.490905 503.597889 768.12996 242.19739 828.411905-126.909156 512.766968 47.35989 197.122031-126.909156 257.404999 242.19739 2.044054 503.597889 354.9445 557.449377Z"  horiz-adv-x="1024" />

    
    <glyph glyph-name="mima" unicode="&#59064;" d="M876.25 457.15l-71.75 0 0.25 211.2875C804.75 794.15 674.125 896 512.75 896 351.5375 896 220.75 794.15 220.75 668.4375l-1.35-211.2875L146.125 457.15c-40.375 0-71.4375-32.5375-71.4375-64L73.125-64c0-31.4375 34.225-64 74.5625-64l730.25 0c40.1875 0 71.3125 32.5625 71.3125 64l1.5625 457.1625C950.8125 424.625 916.4375 457.15 876.25 457.15zM657.25 457.15 365.6875 457.15 365.6875 676.5875c0 62.6875 66.6875 105.6625 147.0625 105.6625s145.5-42.975 145.5-105.6625L657.25 457.15z"  horiz-adv-x="1024" />

    
    <glyph glyph-name="renzheng" unicode="&#59065;" d="M938.946632 747.015623l-42.244719 0.687414c-0.999875 0-95.800525 2.062242-193.663292 41.744782-100.362455 40.782402-165.104362 87.551556-165.604299 87.989001l-25.621797 18.472691L486.503187 877.43682c-0.624922-0.437445-65.304337-47.219098-165.666792-87.989001-97.800275-39.720035-192.600925-41.744782-193.538308-41.744782L84.865892 747.015623l0-430.446194c0-216.097988 277.715286-444.569429 427.071616-444.569429 149.418823 0 427.134108 228.471441 427.134108 444.569429L938.946632 747.015623zM464.31846 196.271966 282.966129 350.690164l55.743032 65.616798 116.297963-98.987627 220.847394 254.343207 65.241845-56.555431L464.31846 196.271966z"  horiz-adv-x="1024" />

    
    <glyph glyph-name="shoucang" unicode="&#59067;" d="M512-76.75l-71.6875 70.125C174.0625 223.75 0 379 0 569.275 0 724.4625 122.85 844.6875 281.625 844.6875c86.975 0 174.0625-40.125 230.375-105.1875 56.25 65.0625 143.375 105.1875 230.375 105.1875 158.6875 0 281.625-120.225 281.625-275.4125 0-190.2875-174.125-345.5375-440.375-575.9125L512-76.75z"  horiz-adv-x="1024" />

    
    <glyph glyph-name="tixingshuikan" unicode="&#59090;" d="M682.339575 85.326961l60.725866 0c151.974639 50.615554 239.831978 170.467553 263.572016 359.42802 3.263455 101.167118-12.029992 177.122443-45.624386 227.737996-87.857339 145.063792-229.849644 219.291406-425.720958 222.68284C464.391945 898.567252 379.414125 892.296298 292.068701 849.61542 113.474504 762.397975 31.952108 604.984243 18.450361 429.525523c-6.782868-97.839673 8.382601-190.62419 45.560397-278.35355 84.465905-175.586699 219.611352-268.307226 405.436343-278.609507 165.668354-6.654889 312.523848 45.752365 441.014406 157.093785l-55.862678 60.725866c-151.974639-124.843167-317.515015-160.35724-496.621126-106.350253-155.430063 67.508734-239.895967 195.743335-253.397714 384.703803 3.391434 84.337926 23.676049 161.956973 60.853845 232.857142 74.355592 134.95348 193.951634 219.419384 359.747967 217.563694 244.183252-2.687552 376.769127-121.515722 400.381186-303.693321 3.263455-168.675852-57.462411-281.744984-182.497546-339.143405l-30.522906 0c-23.61206 16.893181-31.994661 40.505241-25.147803 70.836179l126.634868 420.153887-101.487064 0L697.441055 611.767111l-30.394928 40.505241c-84.465905 57.334432-172.259254 59.062144-263.572016 5.055156C322.527618 596.537653 270.120364 519.814456 246.508304 427.029939c-23.676049-92.848506-22.012327-168.739842 4.991167-227.865975 27.003494-58.998155 74.355592-93.616378 141.928316-103.598712 77.747026-6.974836 146.983472 21.884348 207.709339 86.001648l0-5.119146C601.137125 132.679059 628.204608 102.220142 682.339575 85.326961L682.339575 85.326961zM454.217642 186.558068l-65.845012 4.991167c-50.679543 16.893181-72.62788 60.853845-65.845012 131.690024C349.467123 491.915112 422.158992 588.091062 540.34727 611.767111c70.964158-3.391434 111.469399-30.394928 121.579711-80.946492C651.880657 355.361899 582.644211 240.565056 454.217642 186.558068L454.217642 186.558068zM454.217642 186.558068"  horiz-adv-x="1024" />

    
    <glyph glyph-name="baoxiu" unicode="&#59091;" d="M286.4 431.04c0.192-0.256 0.448-0.512 0.704-0.768l103.104-106.56L426.176 360.96 387.328 401.024 369.792 419.2l89.92 92.928L471.68 510.72c3.008-0.32 6.144-0.512 9.216-0.512 6.208 0 12.288 0.768 18.176 2.112L432.832 580.8C431.488 582.272 430.08 583.424 428.608 584.768c20.416 75.84 1.856 160.576-55.872 220.16C315.456 864.128 234.24 883.52 161.28 863.104L284.928 735.36 252.416 610.176 131.264 576.64 7.552 704.384c-19.712-75.456-0.96-159.296 56.384-218.496C124.032 423.744 210.624 405.504 286.4 431.04L286.4 431.04 286.4 431.04zM651.84 354.624c-1.984-9.216-2.56-18.752-1.472-28.352l1.344-12.288L643.2 305.28l-64-66.112-17.536-18.112-56.384 58.24-36.032-37.184 326.528-337.344c20.16-20.8 46.592-31.168 72.96-31.168 26.304 0 52.672 10.368 72.896 31.168 40.256 41.536 40.256 109.056 0 150.656L651.84 354.624 651.84 354.624 651.84 354.624zM903.936-60.224l-51.84-14.4-41.984 43.456 13.888 53.44 51.84 14.4 41.984-43.392L903.936-60.224 903.936-60.224 903.936-60.224zM505.6 315.2l56.384-58.304 64 66.112C622.592 355.264 632.768 388.736 656.704 413.44c23.872 24.768 56.32 35.264 87.552 31.616L1024 734.144 867.328 896 587.52 606.976C590.976 574.72 580.8 541.248 556.864 516.48 532.928 491.84 500.48 481.344 469.312 484.864l-64-66.048 56.384-58.24-276.48-285.632-10.112 10.432-53.056-44.16-89.28-145.6L55.552-128l140.992 92.224 42.688 54.784L229.12 29.504 505.6 315.2 505.6 315.2 505.6 315.2zM505.6 315.2"  horiz-adv-x="1024" />

    
    <glyph glyph-name="quanbudingdan" unicode="&#59101;" d="M759.729551-25.17128c0-25.979129-16.892833-42.871962-42.807974-42.871962L116.778104-68.043242c-26.874961 0-56.949322 18.172593-56.949322 42.871962L59.828782 618.036118c0 26.107105 16.764857 42.807974 42.743986 42.807974l29.114541 0c20.476161 0 34.297569-4.15922 34.297569 22.075861 0 23.739549-12.861588 38.008873-34.297569 38.008873L102.572768 720.928826c-77.937387 0-102.316816-25.211273-102.316816-104.10848l0-636.10473c0-79.345123 29.114541-108.779604 108.2677-108.779604l602.511029 0c86.767731 3.455352 105.260264 20.412173 113.38674 104.74836 0 0 2.55952 19.580329-31.738049 18.876461C758.385803-4.951072 760.625383-18.068612 759.729551-25.17128L759.729551-25.17128zM759.729551-25.17128M865.885646 484.685122c-1.727676 23.163657-20.092233 40.696369-42.616009 40.696369L405.81191 525.381491c-22.523777 0-41.528213-19.068425-41.528213-41.592201s19.004437-41.592201 41.528213-41.592201l418.673499 0c22.395801 0 41.336249 19.068425 41.336249 41.592201L865.821658 484.685122 865.885646 484.685122 865.885646 484.685122zM518.494782 812.879585l194.459539 0c29.498469 0 54.581766 0.767856 54.581766 34.233581 0 34.041617-25.083297 48.630882-55.669562 48.630882L518.494782 895.744048c-30.714241 0-55.669562-14.653253-55.669562-48.630882S487.780541 812.879585 518.494782 812.879585L518.494782 812.879585 518.494782 812.879585zM824.549397 679.912516 405.81191 679.912516c-22.523777 0-41.528213-19.004437-41.528213-41.528213 0-22.523777 19.004437-41.464225 41.528213-41.464225l418.673499 0c22.395801 0 41.336249 19.004437 41.336249 41.464225C865.885646 660.844092 846.88121 679.912516 824.549397 679.912516L824.549397 679.912516 824.549397 679.912516zM823.269637 357.604949 405.81191 357.604949c-22.523777 0-41.528213-18.940449-41.528213-41.464225S383.288133 274.676498 405.81191 274.676498l418.673499 0c22.395801 0 41.336249 18.876461 41.336249 41.400237L865.821658 317.100544C864.15797 340.200212 845.793414 357.604949 823.269637 357.604949L823.269637 357.604949 823.269637 357.604949zM1006.467287 844.937574c-17.532713 18.940449-46.327314 36.601137-84.720115 36.601137l-55.797538 0c-22.203837 0-46.13535-14.589265-46.13535-38.008873 0-22.139849 22.715741-22.075861 46.13535-22.075861l55.797538 0c25.979129 0 42.679998-16.828845 42.679998-42.807974l0-643.207399c0-26.107105-16.700869-42.93595-42.679998-42.93595l-600.207461 0c-26.874961 0-57.01331 18.236581-57.01331 42.93595L264.526401 778.646004c0 25.979129 16.828845 42.871962 42.743986 42.871962l70.002874 0c20.540149 0 34.361557-4.223208 34.361557 22.011873 0 23.739549-12.861588 38.008873-34.361557 38.008873L307.334375 881.538711c-77.937387 0-102.316816-25.211273-102.316816-104.044492l0-636.10473c0-79.281135 29.050553-108.779604 108.2677-108.779604l602.575017 0c84.016247 0 108.203712 24.763357 108.203712 108.779604L1024.063988 777.430232C1024.063988 807.952509 1022.4003 827.852778 1006.467287 844.937574L1006.467287 844.937574 1006.467287 844.937574zM1006.467287 844.937574"  horiz-adv-x="1024" />

    
    <glyph glyph-name="qunliao" unicode="&#59102;" d="M963.264 326.016c-3.648 0-7.488 0.96-11.008 2.688-12.096 6.272-17.28 21.248-11.008 33.472 60.224 121.664 38.4 242.304-60.48 331.136-122.112 109.888-356.672 158.528-550.4 32.192C318.72 718.016 303.488 721.28 296 732.864 288.512 744.448 291.84 759.936 303.296 767.36c214.4 139.84 474.56 85.312 610.56-36.864 115.008-103.424 141.76-249.344 71.616-390.528C981.376 331.072 972.352 326.016 963.264 326.016L963.264 326.016zM963.264 326.016M445.824-82.048c-7.68 0-14.912 3.584-19.648 9.536L374.208-5.12c-1.344 1.728-3.712 2.944-6.208 3.2C154.752 27.712 0 172.544 0 342.656c0 193.088 200 350.144 445.824 350.144 245.76 0 445.888-157.12 445.888-350.144 0-170.112-154.88-314.944-368.128-344.448L523.52-1.792c-2.432-0.256-4.8-1.536-6.016-3.328l-52.032-67.392C460.736-78.528 453.44-82.048 445.824-82.048L445.824-82.048zM445.824 642.944c-218.432 0-396.224-134.656-396.224-300.288 0-144.768 136.768-268.992 325.184-295.04 15.36-2.112 29.504-10.176 38.72-22.208l32.32-41.856 32.384 41.856c9.152 12.096 23.296 20.032 38.656 22.208 188.48 26.048 324.992 150.08 324.992 295.04C841.856 508.224 664.256 642.944 445.824 642.944L445.824 642.944zM520.256 22.912l0.32 0L520.256 22.912 520.256 22.912zM520.256 22.912M209.536 270.016c-29.824 0-54.144 24.448-54.144 54.4 0 29.952 24.256 54.4 54.144 54.4 29.76 0 54.016-24.32 54.016-54.4C263.552 294.464 239.424 270.016 209.536 270.016L209.536 270.016zM209.536 328.96c-2.496 0-4.416-2.112-4.416-4.544 0-5.056 8.896-5.056 8.896 0C213.952 326.784 212.032 328.96 209.536 328.96L209.536 328.96zM209.536 328.96M445.824 270.016c-29.76 0-54.144 24.448-54.144 54.4 0 29.952 24.256 54.4 54.144 54.4 29.824 0 54.08-24.32 54.08-54.4C499.904 294.464 475.584 270.016 445.824 270.016L445.824 270.016zM445.824 328.96c-2.496 0-4.416-2.112-4.416-4.544 0-5.056 8.832-5.056 8.832 0C450.24 326.784 448.32 328.96 445.824 328.96L445.824 328.96zM445.824 328.96M682.24 270.016c-29.888 0-54.272 24.448-54.272 54.4 0 29.952 24.384 54.4 54.272 54.4 29.76 0 54.016-24.32 54.016-54.4C736.256 294.464 712 270.016 682.24 270.016L682.24 270.016zM682.24 328.96c-2.496 0-4.48-2.112-4.48-4.544 0-5.056 8.896-5.056 8.896 0C686.656 326.784 684.608 328.96 682.24 328.96L682.24 328.96zM682.24 328.96"  horiz-adv-x="1024" />

    
    <glyph glyph-name="wodeqianbao" unicode="&#59113;" d="M986.664267 263.981041c-36.99015 138.233088-116.346183 244.915754-240.243988 317.424129-14.271286 8.383581-29.374531 15.295235-44.029799 22.910854 0 0.19199 0.127994 0.639968 0.447978 0.959952 2.431878 2.367882 4.927754 4.735763 7.423629 7.039648 25.470726 24.382781 48.445578 52.541373 60.412979 85.883706 5.759712 16.063197 7.231638 23.102845 11.19944 38.078096 7.551622 47.293635-1.087946 76.028199-29.118544 99.963002-38.014099 32.318384-81.147943 36.158192-126.585671 17.151142C622.970451 852.047638 620.986551 851.087686 617.786711 854.095535 559.229639 909.516764 465.218339 909.964742 406.213289 855.311474c-2.751862-2.559872-4.735763-3.19984-8.255587-1.59992C373.958902 864.719004 349.00015 867.086886 323.273436 861.775151 274.699865 851.727654 234.381881 810.321724 241.485526 753.812549c6.271686-49.085546 25.278736-91.579421 57.981101-128.121594C306.186291 618.20333 313.353932 611.099685 320.521574 603.420069 318.79366 602.588111 317.00175 601.628159 315.20984 600.7962c-167.415629-76.476176-280.497975-242.931853-293.681316-432.170391-3.647818-52.349383-0.639968-104.186791 12.479376-155.576221C54.678866-67.778371 125.779311-128.319344 211.151042-127.99936c201.20594 0.511974 402.283886 0 603.361832 0.19199 64.636768 0.127994 114.362282 29.246538 150.520474 82.043898 18.303085 26.814659 26.878656 57.213139 31.870406 89.211539C1008.487176 117.684356 1006.119294 191.344673 986.664267 263.981041L986.664267 263.981041 986.664267 263.981041zM945.322334 79.158282c-4.287786-29.054547-8.959552-59.645018-24.894755-84.027799-31.294435-48.061597-91.131443-74.620269-147.064647-74.620269-174.263287-0.319984-348.462577 0.19199-522.59787-0.319984-73.980301-0.127994-143.672816 42.301885-161.59192 115.898205-11.327434 46.781661-10.111494 105.338733-6.911654 153.016349C93.716914 361.512164 244.877356 524.064037 389.766112 593.756552c1.59992 0.767962-41.725914 39.998-47.613619 46.845658C313.80191 674.00854 296.010799 701.015189 290.699065 745.620959c-6.59167 54.845258 33.214339 71.036448 57.277136 76.284186 22.270886 4.863757 69.372531-19.647018 71.868407-17.343133C470.786061 854.479516 552.317984 853.967542 603.067447 803.538063c2.623869-2.687866 4.479776-1.855907 7.167642-0.639968 39.358032 17.279136 72.828359 27.902605 105.59472-1.471926 24.382781-21.758912 24.958752-37.886106 18.879056-72.124394-3.583821-14.143293-26.110694-52.093395-34.622269-63.80481-31.80641-43.453827-62.780861-71.164442-65.020749-73.340333-0.255987-0.255987 67.900605-33.214339 79.228039-42.173891 105.210739-82.683866 175.9912-146.680666 208.053597-272.626369C939.370631 211.183681 955.433828 146.8029 945.322334 79.158282L945.322334 79.158282 945.322334 79.158282zM945.322334 79.158282M511.872006 377.383371 452.226989 443.428069c-8.19159 9.151542-14.015299 15.9992-17.343133 20.60697C428.292185 470.498715 419.652617 475.682456 408.901155 479.842248 398.085696 483.938043 388.99815 481.442168 381.574521 472.290625 374.918854 462.243128 373.318934 452.323624 376.646768 442.724104c3.263837-9.59952 6.975651-17.215139 11.135443-22.654867L406.40528 400.742203C415.492825 389.734753 425.348333 377.831348 436.163792 365.031988c12.351382-14.655267 26.046698-30.270486 40.957952-46.781661L475.969802 289.323774l-84.475776 0C384.0064 289.323774 377.60672 286.123934 372.230988 279.660257 366.855257 273.260577 364.167392 266.412919 364.167392 259.117284c0-7.423629 2.431878-13.823309 7.487626-19.327034 4.99175-5.503725 11.519424-8.319584 19.839008-8.319584l84.475776 0 0-48.061597-84.475776 0c-7.487626 0-13.887306-2.495875-19.263037-7.551622C366.855257 170.865697 364.167392 164.146033 364.167392 155.954442c-0.831958-7.295635 1.471926-13.567322 6.783661-18.559072 5.375731-5.183741 12.159392-7.615619 20.478976-7.615619l84.475776 0 0-27.582621c0.831958-12.79936 4.543773-21.758912 11.135443-26.814659 6.59167-4.99175 14.847258-7.615619 24.766762-7.615619 9.919504-0.831958 18.047098 2.623869 24.19079 10.431478 6.271686 7.743613 9.343533 15.743213 9.343533 23.9988l0 27.582621 86.843658 0c8.319584 0 15.103245 2.047898 20.478976 6.143693s7.615619 10.751462 6.783661 20.030998c0 19.135043-11.647418 28.79856-34.750262 28.79856L545.342333 184.753002l1.215939 46.653667 80.699965 1.471926c11.583421-1.023949 19.839008 1.471926 24.766762 7.423629 4.99175 6.015699 7.487626 13.183341 7.487626 21.374931 0 7.295635-2.687866 14.015299-8.063597 19.903005-5.439728 6.079696-13.887306 8.959552-25.470726 8.959552l-80.635968 0 0 26.238688c14.079296 14.655267 26.942653 28.926554 38.526074 42.685866C593.787911 370.535713 603.771411 381.735153 613.690915 393.254577 623.546423 404.646008 631.034048 412.645608 636.025799 417.253377c19.00705 18.431078 23.166842 34.430278 12.415379 48.189591C642.553472 473.634558 635.19384 477.79435 625.978301 477.79435c-9.023549 0-17.343133-3.647818-24.766762-11.00745C597.115744 463.075086 590.140093 456.483416 580.156592 446.883896 570.173091 437.284376 560.253587 427.364872 550.39808 417.253377 538.686666 405.285976 525.951302 392.038638 511.872006 377.383371L511.872006 377.383371 511.872006 377.383371 511.872006 377.383371zM511.872006 377.383371"  horiz-adv-x="1024" />

    
    <glyph glyph-name="yuanquan" unicode="&#59139;" d="M512 831.936c247.04 0 447.936-201.024 447.936-447.936 0-247.104-200.896-448.128-447.936-448.128-246.976 0-448 201.024-448 448.128C64 630.912 265.024 831.936 512 831.936M512 896C229.184 896 0 666.752 0 384s229.184-512 512-512 512 229.248 512 512S794.752 896 512 896L512 896 512 896zM512 896"  horiz-adv-x="1024" />

    
    <glyph glyph-name="xinfangtong" unicode="&#59151;" d="M303.168 315.264l109.184 0 0-108.288L303.168 206.976 303.168 315.264 303.168 315.264zM303.168 315.264M1008.896 463.68 550.72 849.664c-20.992 17.728-51.776 17.728-72.768 0L19.904 463.68c-23.68-19.904-26.624-55.232-6.528-78.784 20.032-23.552 55.488-26.624 79.168-6.528l7.296 6.144 0-444.48c0-19.392 15.744-35.008 35.136-35.008l758.72 0c19.456 0 35.2 15.616 35.2 35.008L928.896 384.512l7.296-6.144c10.496-8.896 23.488-13.312 36.224-13.312 16 0 31.872 6.72 43.008 19.84C1035.584 408.448 1032.576 443.776 1008.896 463.68L1008.896 463.68zM858.624-25.024l-133.056 0L725.568 315.264 532.224 315.264l0-340.224L170.112-24.96 170.112 443.712l344.256 289.984 344.256-289.92L858.624-25.024 858.624-25.024zM858.624-25.024"  horiz-adv-x="1029" />

    
    <glyph glyph-name="dianzan" unicode="&#59157;" d="M1024.32 397.248c0.384-4.672 0-9.536-1.28-14.336l-92.096-406.848c-1.28-4.928-3.392-9.344-6.144-13.184-9.856-19.904-24.896-37.184-44.864-49.984-21.12-13.248-44.48-19.52-67.776-19.52l0 0.192-592 0.32c-2.048-0.32-4.16-0.512-6.336-0.512s-4.288 0.192-6.336 0.512l-157.44 0.192c-2.24-0.512-4.48-0.704-6.784-0.704C19.776-106.688 0.704-87.616 0.704-64.128l0.384 512.256c0 23.552 19.136 42.688 42.688 42.688 1.792 0 3.52-0.128 5.248-0.384l141.504 0.384L190.528 491.52C320.704 500.864 423.936 607.68 427.584 739.392 427.264 743.104 427.008 746.816 427.008 750.656c0 68.544 55.552 124.096 124.096 124.096 58.944 0 108.096-41.088 120.704-96.064l0.768 0.064c6.976-31.424 10.752-64 10.752-97.536 0-51.712-8.896-101.312-25.024-147.456l238.144-0.192c2.112 0 4.224-0.192 6.4-0.512 40.768-1.664 79.744-22.592 102.848-59.776C1020.48 449.536 1026.176 422.976 1024.32 397.248M86.016-20.736l85.312 0 0.32 426.112L86.4 405.248 86.016-20.736 86.016-20.736 86.016-20.736zM933.696 428.672C925.568 441.856 911.104 448.832 896.576 448L896.576 448.128l-0.128 0L595.584 448.448c-23.616 0-42.688 19.136-42.688 42.688 0 6.784 1.664 13.12 4.416 18.816L556.8 510.4C573.888 542.08 586.176 576.704 593.344 613.184l0.512 0c0 0 5.76 22.976 5.632 67.264C599.36 715.392 592.96 747.328 592.96 747.328L592.704 747.328c0.128 0.64 0.128 1.28 0.128 1.856 0 22.08-17.92 39.936-39.936 39.936-22.016 0-39.872-17.856-39.872-39.936 0-0.896 0.064-1.856 0.128-2.752L512.64 746.432c0 0 0.64-33.28-5.952-67.84C503.808 663.936 499.84 650.304 496.256 639.424 496.128 639.488 496.064 639.488 496 639.552 460.096 529.792 369.856 444.672 257.024 416l-0.448-436.736 555.84-0.32c1.856 0 3.776-0.128 5.632-0.448 5.504 0.768 10.88 2.688 16 5.888 7.104 4.48 12.224 11.008 15.232 18.24l0.128 0L938.304 394.24l-0.384 0.128C941.44 405.504 940.352 417.92 933.696 428.672"  horiz-adv-x="1025" />

    
    <glyph glyph-name="nanzhuang" unicode="&#59161;" d="M958.57664 792.256c-1.536 13.312-10.944 24.256-23.68 27.584l-285.632 75.008C638.19264 897.92 626.28864 894.656 618.28864 886.4l-106.368-108.16L405.48864 886.4C397.55264 894.464 385.71264 897.792 374.70464 894.912L89.07264 819.904c-12.864-3.392-22.272-14.336-23.68-27.584l-65.088-623.552c-1.792-17.024 10.176-32.64 27.2-35.008l137.408-20.224L164.91264-96c0-17.664 14.336-32 32.064-32l630.4 0c17.6 0 32.064 14.336 32.064 32l0 209.472 137.344 20.224c16.96 2.56 28.992 17.984 27.264 35.008L958.57664 792.256 958.57664 792.256 958.57664 792.256zM859.18464 178.112 859.18464 414.208c0 17.664-14.464 32-32.128 32s-32.128-14.4-32.128-32l0-272.896 0-205.184L228.72064-63.872l0 205.056L228.72064 414.208c0 17.664-14.4 32-32 32s-32-14.4-32-32l0-236.096L66.86464 192.64l59.648 571.072 246.336 64.704 116.16-118.144c12.032-12.224 33.6-12.224 45.632 0l116.16 118.144 246.336-64.704 59.712-571.072L859.18464 178.112 859.18464 178.112 859.18464 178.112zM588.97664 671.232C585.07264 688.384 567.60064 699.456 550.57664 695.296c-17.152-3.968-27.968-21.056-24-38.4l86.656-377.92-101.248-128.192L410.80064 278.976l86.592 377.92c3.904 17.344-6.912 34.304-24 38.4-17.152 4.096-34.432-6.912-38.4-24.064L344.94464 278.4c-2.176-9.472 0-19.392 6.08-27.008l135.872-172.032c0.64-0.896 1.792-1.216 2.432-1.92 1.024-1.152 1.664-2.368 2.816-3.456 0.768-0.512 1.664-0.192 2.432-0.768 5.312-3.52 11.072-5.952 17.28-5.952l0.128 0 0 0 0 0 0.128 0c6.208 0.128 11.968 2.432 17.28 5.952 0.768 0.576 1.6 0.256 2.368 0.768 1.152 1.088 1.792 2.304 2.816 3.456 0.768 0.768 1.792 1.088 2.432 1.92l135.872 172.032c5.952 7.616 8.32 17.472 6.08 27.008L588.97664 671.232 588.97664 671.232 588.97664 671.232zM588.97664 671.232"  horiz-adv-x="1025" />

    
    <glyph glyph-name="xiangji" unicode="&#59169;" d="M928 658.368l-147.2 0L704 780.288 320 780.288l-76.8-121.92L96 658.368C64 658.368 0 627.904 0 567.808l0-488.768c0-50.496 48-91.456 89.344-91.456l840.704 0c41.984 0 94.016 42.944 94.016 90.496L1024.064 566.912C1024 597.312 992 658.368 928 658.368L928 658.368zM959.936 78.144c0-12.032-20.48-28.8-29.952-29.568L89.472 48.576C82.048 49.216 64 62.848 64 79.04L64 567.808c0 19.328 27.2 29.12 32 29.504l147.2 0 36.224 0 18.624 29.632L356.16 719.36l313.664 0 57.152-92.352 17.536-29.632L780.8 597.376l147.2 0c22.592 0 31.68-28.032 31.936-30.464L959.936 78.144 959.936 78.144zM959.936 78.144M512 566.912c-123.776 0-224-95.552-224-213.376s100.288-213.376 224-213.376c123.648 0 224 95.488 224 213.376S635.648 566.912 512 566.912L512 566.912zM512 201.024c-88.192 0-160 68.416-160 152.512S423.744 505.92 512 505.92s160-68.352 160-152.448S600.192 201.024 512 201.024L512 201.024zM512 201.024"  horiz-adv-x="1025" />

    
    <glyph glyph-name="quanbudingdan1" unicode="&#59176;" d="M742.627 689.761h-72.936c-7.309 80.895-75.561 144.511-158.281 144.511-82.817 0-151.027-63.616-158.336-144.511h-145.14v-751.458h606.952v751.458h-72.259zM655.928 82.807h-289.036v28.896h289.036v-28.896zM655.928 227.312h-289.036v28.907h289.036v-28.907zM655.928 371.831h-289.036v28.907h289.036v-28.907zM713.733 545.258h-404.646v115.608h72.26v14.44c0 71.707 58.289 130.064 130.063 130.064 71.679 0 130.062-58.357 130.062-130.064v-14.44h72.261l-0-115.608zM511.41 762.013c-47.815 0-86.701-38.886-86.701-86.707v-14.44h173.414v14.44c0 47.821-38.886 86.707-86.713 86.707zM455.388 689.761c6.468 24.908 29.117 43.349 56.022 43.349 26.851 0 49.499-18.441 55.911-43.349h-111.933z"  horiz-adv-x="1024" />

    
    <glyph glyph-name="waitevaluate" unicode="&#59184;" d="M323.499 506.429c-25.891 0-46.913-21.021-46.913-46.913 0-25.893 21.021-46.913 46.913-46.913 25.893 0 46.913 21.020 46.913 46.913 0 25.892-21.020 46.913-46.913 46.913zM323.499 393.838c-36.227 0-65.678 29.468-65.678 65.678 0 36.209 29.451 65.678 65.678 65.678 36.229 0 65.678-29.469 65.678-65.678 0-36.212-29.446-65.678-65.678-65.678zM511.149 506.429c-25.891 0-46.913-21.021-46.913-46.913 0-25.893 21.021-46.913 46.913-46.913 25.893 0 46.913 21.020 46.913 46.913-0.001 25.892-21.020 46.913-46.913 46.913zM511.149 393.838c-36.227 0-65.678 29.468-65.678 65.678 0 36.209 29.451 65.678 65.678 65.678 36.229 0 65.678-29.469 65.678-65.678-0.001-36.212-29.447-65.678-65.678-65.678zM698.799 506.429c-25.891 0-46.913-21.021-46.913-46.913 0-25.893 21.021-46.913 46.913-46.913 25.893 0 46.913 21.020 46.913 46.913-0.001 25.892-21.020 46.913-46.913 46.913zM698.799 393.838c-36.227 0-65.678 29.468-65.678 65.678 0 36.209 29.451 65.678 65.678 65.678 36.229 0 65.678-29.469 65.678-65.678 0-36.212-29.447-65.678-65.678-65.678zM914.596 694.259c0 10.318-8.448 18.766-18.766 18.766h-769.364c-10.318 0-18.766-8.448-18.766-18.766v-468.941c0-10.318 8.448-18.766 18.766-18.766h115.028l11.070-18.196 80.318-132.474 80.503 132.474 10.885 18.196h471.559c10.318 0 18.766 8.448 18.766 18.766v468.941zM895.831 169.226h-450.359l-80.318-132.49c-7.312-12.186-19.884-18.196-32.272-18.196-12.387 0-24.958 6.010-32.086 18.196l-80.503 132.49h-93.825c-31.152 0-56.295 25.142-56.295 56.095v468.94c0 31.153 25.142 56.113 56.295 56.113h769.364c31.154 0 56.295-24.959 56.295-56.113v-468.941c0.001-30.951-25.14-56.094-56.293-56.094z"  horiz-adv-x="1024" />

    
    <glyph glyph-name="waitreceive" unicode="&#59186;" d="M860.498694 549.604712c0 18.36323-15.036461 33.400714-33.400714 33.400714L689.32208 583.005426 576.595692 583.005426l0-150.302191 283.903002 0L860.498694 549.604712zM691.83225 715.936995c-4.01136 0.505513-7.861038 0.669242-11.676947 0.669242-81.185021 0-121.076566-100.20112-121.076566-100.20112l130.243343 0C780.356422 616.406141 782.346753 705.581136 691.83225 715.936995zM477.240847 583.005426l-0.846274 0 0-150.302191 66.800405 0L543.194978 583.005426l-16.864086 0-16.374946 0L477.240847 583.005426zM356.164281 716.60726c-3.847631 0-7.697309-0.163729-11.70867-0.669242-90.515526-10.355859-88.49245-99.531877 2.511193-99.531877l130.273019 0C477.240847 616.406141 437.317579 716.60726 356.164281 716.60726zM192.490547 583.005426c-18.365276 0-33.400714-15.036461-33.400714-33.400714l0-116.901477 283.903002 0L442.992835 583.005426l-96.02603 0L192.490547 583.005426zM192.490547 81.998805c0-18.36323 15.035438-33.400714 33.400714-33.400714l217.102596 0L442.993858 399.302521 192.490547 399.302521 192.490547 81.998805zM476.394572 48.599114l66.800405 0L543.194978 399.302521l-66.800405 0L476.394572 48.599114zM576.595692 48.599114l217.102596 0c18.36323 0 33.400714 15.036461 33.400714 33.400714L827.099003 399.302521 576.595692 399.302521 576.595692 48.599114zM860.498694 399.302521l0-317.303716c0-36.907585-29.878494-66.800405-66.800405-66.800405L225.891262 15.198399c-36.891212 0-66.800405 29.893844-66.800405 66.800405L159.090856 399.302521c-18.365276 0-33.400714 15.036461-33.400714 33.400714L125.690142 549.604712c0 36.905538 29.910217 66.800405 66.800405 66.800405l69.997214 0c-11.025101 12.850679-17.059538 27.888164-17.876136 42.760896-2.184759 37.739533 26.877137 82.001619 96.189759 90.00899 5.187139 0.50449 10.340509 0.831948 15.362896 0.831948 102.550631 0 149.975756-116.233258 151.965064-121.240295l5.02341-12.361539 10.013051 0 4.991688 12.361539c2.022053 5.007037 49.447179 121.240295 151.996786 121.240295 4.991688 0 10.17678-0.327458 15.362896-0.831948 69.2809-8.007371 98.342796-52.270481 96.189759-90.00899-0.848321-14.872732-6.848988-29.910217-17.874089-42.760896l53.265134 0c36.922934 0 66.800405-29.894867 66.800405-66.800405l0-116.901477C893.899408 414.340005 878.862947 399.302521 860.498694 399.302521z"  horiz-adv-x="1024" />

    
    <glyph glyph-name="persel" unicode="&#59190;" d="M603.454 387.855c85.847 35.887 146.37 120.748 146.37 219.449 0 131.109-106.699 237.809-237.824 237.809-131.124 0-237.823-106.699-237.823-237.809 0-98.701 60.485-183.559 146.37-219.449-169.028-41.285-295.002-193.551-295.002-375.105v-89.186h772.911v89.186c-0.001 181.554-125.99 333.822-295.003 375.105zM704.137 686.946c-28.060-13.113-57.073-20.175-86.42-20.175-84.093 0-159.008 52.032-190.793 130.247 26.002 11.657 54.733 18.363 85.074 18.363 86.505 0 160.795-53.074 192.14-128.433zM385.229 771.924c-10.734-47.127-37.45-88.799-75.969-118.236 10.973 47.766 38.371 89.274 75.969 118.236zM303.901 607.303c0 2.423 0.275 4.801 0.394 7.241 54.203 32.306 92.522 83.982 108.037 143.882 41.537-73.888 119.307-121.402 205.385-121.402 32.603 0 64.7 7.566 95.676 21.572 4.213-16.428 6.704-33.57 6.704-51.292 0-114.757-93.356-208.091-208.098-208.091-114.741 0-208.097 93.334-208.097 208.091zM868.721-46.687h-713.452v59.438c0 196.764 160.041 356.715 356.729 356.715 196.682 0 356.722-159.952 356.722-356.715v-59.438z"  horiz-adv-x="1024" />

    
    <glyph glyph-name="cartsel" unicode="&#59191;" d="M725.024 25.172c27.927 0 50.598 22.669 50.598 50.601 0 27.927-22.669 50.598-50.598 50.598-27.929 0-50.598-22.669-50.598-50.598 0-27.929 22.668-50.601 50.598-50.601zM725.024 146.613c39.068 0 70.841-31.791 70.841-70.839 0-39.062-31.773-70.841-70.841-70.841-39.062 0-70.834 31.779-70.834 70.841 0 39.047 31.773 70.839 70.834 70.839zM340.478 25.172c27.927 0 50.598 22.669 50.598 50.601 0 27.927-22.669 50.598-50.598 50.598-27.923 0-50.601-22.669-50.601-50.598 0-27.929 22.677-50.601 50.601-50.601zM340.478 146.613c39.067 0 70.841-31.791 70.841-70.839 0-39.062-31.773-70.841-70.841-70.841-39.062 0-70.834 31.779-70.834 70.841 0 39.047 31.772 70.839 70.834 70.839zM735.146 551.389v-101.196h167.575l43.524 101.196h-211.1zM573.229 429.963v-101.199h141.675v101.199h-141.675zM714.903 551.389h-141.675v-101.196h141.675v101.196zM411.317 429.963v-101.199h141.675v101.199h-141.675zM552.993 551.389h-141.675v-101.196h141.675v101.196zM235.849 429.963l20.43-101.199h134.798v101.199h-155.228zM391.076 551.389h-179.522l20.241-101.196h159.282v101.196zM280.572 207.326h110.503v101.199h-130.745l20.241-101.199zM552.993 207.326v101.199h-141.675v-101.199h141.675zM714.903 207.326v101.199h-141.675v-101.199h141.675zM798.084 207.326l43.722 101.199h-106.661v-101.199h62.939zM735.146 328.765h115.37l43.514 101.199h-158.883v-101.199zM995.63 563.525l-165.565-384.548c-3.242-7.268-10.525-12.138-18.618-12.138h-547.469c-9.516 0-17.815 6.879-19.83 16.196l-110.516 550.503h-86.619c-11.133 0-20.242 9.121-20.242 20.242 0 11.133 9.109 20.241 20.242 20.241h103.22c9.507 0 17.807-6.878 19.83-16.182l33.197-165.97h773.748c6.878 0 13.154-3.445 16.789-9.108 3.857-5.678 4.455-12.948 1.831-19.238z"  horiz-adv-x="1024" />

    
    <glyph glyph-name="zhiding1" unicode="&#58906;" d="M512 384m-512 0a512 512 0 1 1 1024 0 512 512 0 1 1-1024 0ZM250.88 299.52h148.48V76.8h222.72v222.72h148.48L512 560.64 250.88 299.52z m0 373.76v-74.24h522.24V673.28H250.88z"  horiz-adv-x="1024" />

    
    <glyph glyph-name="fanhui" unicode="&#58880;" d="M532.526499-8.817574L139.506311 384.202615 532.526499 777.222803c12.258185 12.258185 12.432147 32.892131-0.187265 45.51052-12.707416 12.707416-32.995485 12.703323-45.511543 0.187265L75.166957 411.260877c-7.120165-7.120165-10.163477-17.065677-8.990768-26.624381-1.500167-9.755178 1.5104-20.010753 8.990768-27.491121l411.660734-411.660734c12.258185-12.258185 32.892131-12.432147 45.511543 0.187265 12.707416 12.707416 12.7023 32.995485 0.187265 45.51052z"  horiz-adv-x="1024" />

    
    <glyph glyph-name="gengduo" unicode="&#58881;" d="M492.675886-8.817574L885.696074 384.202615 492.675886 777.222803c-12.258185 12.258185-12.432147 32.892131 0.187265 45.51052 12.707416 12.707416 32.995485 12.703323 45.511543 0.187265l411.660734-411.660734c7.120165-7.120165 10.163477-17.065677 8.990768-26.624381 1.500167-9.755178-1.5104-20.010753-8.990768-27.491121L538.374694-54.515359c-12.258185-12.258185-32.892131-12.432147-45.511543 0.187265-12.707416 12.707416-12.703323 32.995485-0.187265 45.51052z"  horiz-adv-x="1024" />

    
    <glyph glyph-name="shangjiantou" unicode="&#58882;" d="M65.582671 160.791335l446.417329 446.41733 446.417329-446.41733z"  horiz-adv-x="1024" />

    
    <glyph glyph-name="xiajiantou" unicode="&#58883;" d="M65.582671 607.208665l446.417329-446.41733 446.417329 446.41733z"  horiz-adv-x="1024" />

    
    <glyph glyph-name="youjiantou" unicode="&#58884;" d="M288.791335 830.417329l446.41733-446.417329-446.41733-446.417329z"  horiz-adv-x="1024" />

    
    <glyph glyph-name="zuojiantou" unicode="&#58885;" d="M735.208665 830.417329l-446.41733-446.417329 446.41733-446.417329z"  horiz-adv-x="1024" />

    


  </font>
</defs>
</svg>
